<svg xmlns="http://www.w3.org/2000/svg" xmlns:xlink="http://www.w3.org/1999/xlink" id="Layer_1" data-name="Layer 1" viewBox="0 0 24 24"><defs><style>.cls-1{fill:none}.cls-2{fill:#294347}.cls-3{fill:#ffe2b0}.cls-4{fill:#fff}.cls-5{clip-path:url(#clip-path)}.cls-6{fill:#f74d7a}</style><clipPath id="clip-path"><circle cx="12" cy="12" r="12" class="cls-1"/></clipPath></defs><circle cx="12" cy="12" r="12" class="cls-2"/><circle cx="12.16" cy="12.21" r="7.7" class="cls-3"/><polygon points="19.06 3.56 19.94 4.04 19.06 4.52 18.58 5.41 18.09 4.52 17.21 4.04 18.09 3.56 18.58 2.67 19.06 3.56" class="cls-4"/><polygon points="4.65 18.36 5.32 18.72 4.65 19.09 4.29 19.75 3.92 19.09 3.26 18.72 3.92 18.36 4.29 17.69 4.65 18.36" class="cls-4"/><g class="cls-5"><circle cx="8.94" cy="25.65" r="3.87" class="cls-6"/><circle cx="20.95" cy="8.34" r=".64" class="cls-6"/><circle cx="7" cy="2.98" r=".26" class="cls-4"/><circle cx="22.8" cy="14.23" r=".26" class="cls-4"/><circle cx="2.85" cy="13.46" r=".26" class="cls-4"/><circle cx="5.49" cy="6.62" r=".26" class="cls-4"/><circle cx="1.94" cy="9.18" r=".26" class="cls-4"/><circle cx="16.17" cy="21.23" r=".26" class="cls-4"/><circle cx="15.19" cy="2.66" r=".26" class="cls-6"/></g><path d="M19.39,13.37l1.05-.43A1,1,0,0,0,21,12L21,11a.92.92,0,0,0-.65-.86l-1.08-.34Z" class="cls-3"/><path d="M5.16,9.81,4,10.2a.92.92,0,0,0-.63.86l0,1A1,1,0,0,0,4,13L5,13.37Z" class="cls-3"/><circle cx="12.25" cy="2.58" r="1.25" class="cls-3"/><rect width=".45" height="1.47" x="12.06" y="3.48" class="cls-3"/><path d="M19,11.61c.07,2.26-2.36,4.8-5.46,4.9S7.86,14.22,7.79,12s0-4.1,5.47-4.27C18.5,7.53,18.93,9.35,19,11.61Z" class="cls-2"/></svg>